<svg xmlns="http://www.w3.org/2000/svg" viewBox="22.14 15.16 397.99 566.83" width="265.0154639999751" height="377.33647120308956">
  <path d="M240.708 545.09c-2.085 1.1-5.01 3.763-6.5 5.917-1.993 2.883-3.419 3.927-5.399 3.955-1.48.021-2.969.488-3.309 1.038-.351.567.49 1 1.941 1 1.407 0 2.559.284 2.559.631s-2.077 5.283-4.615 10.969c-4.875 10.923-6.322 12.297-10.797 10.258-2.065-.941-2.908-.938-3.857.011-1.703 1.703.73 3.096 5.442 3.116 5.47.022 9.192-3.756 14.898-15.126l4.947-9.859h4.491c2.47 0 4.491-.45 4.491-1s-1.812-1-4.026-1h-4.025l1.505-2.912c3.05-5.896 11.402-9.512 12.908-5.588.316.825 1.278 1.5 2.138 1.5 2.114 0 3.134-2.985 1.396-4.086-2.448-1.55-10.248-.904-14.188 1.176m-208.274 1.221c-.277.721-.375 6.459-.219 12.75L32.5 570.5l4.186.304 4.187.305.313-3.805.314-3.804 11.254-.598c13.926-.741 15.488-1.711 15.041-9.348-.272-4.659-.568-5.191-3.795-6.802-4.517-2.257-30.729-2.623-31.566-.441M101 547c0 1.839.498 2.08 3.75 1.81 2.529-.209 3.75-.799 3.75-1.81s-1.221-1.601-3.75-1.81c-3.252-.27-3.75-.029-3.75 1.81m34 2.395v4.394l-3.75-.882c-5.405-1.272-12.199-.049-14.937 2.689-3.021 3.021-3.135 9.089-.241 12.769 2.049 2.604 2.211 2.633 14.5 2.53l12.428-.104V545h-8zm132.635-2.322c-2.578 2.027-3.3 5.031-2.014 8.382 1.147 2.989 5.952 4.544 14.079 4.559 10.163.017 12.3.625 12.3 3.496 0 2.933-1.624 3.49-10.175 3.49-6.171 0-7.075-.24-7.535-2-.288-1.1-.808-2.04-1.157-2.088-.348-.048-2.201-.161-4.118-.25-4.375-.203-5.229 2.417-1.931 5.927 2.171 2.312 2.808 2.411 15.455 2.411 11.916 0 13.451-.205 15.88-2.115 2.165-1.703 2.629-2.802 2.385-5.65-.487-5.668-3.561-7.227-15.859-8.043-9.101-.604-10.468-.93-10.782-2.572-.528-2.762 1.545-3.588 9.052-3.605 5.7-.013 6.876.287 7.785 1.985 1.455 2.718 9.008 2.928 8.985.25-.044-4.938-3.776-6.25-17.784-6.25-10.556 0-12.235.239-14.566 2.073M399 558v13h8v-26h-8zm-92-7.5c-.523 1.375-1.637 2.5-2.475 2.5-2.245 0-1.857 2.68.475 3.29 1.722.45 2 1.364 2 6.581 0 7.418.952 8.129 10.878 8.129 6.109 0 7.208-.285 8.565-2.223 2.349-3.352 1.929-4.777-1.408-4.777-1.97 0-3.335.691-4.067 2.061-.706 1.318-1.89 1.948-3.286 1.75-1.912-.272-2.219-1.024-2.482-6.061l-.3-5.75h6.05c4.711 0 6.05-.332 6.05-1.5 0-1.152-1.281-1.5-5.525-1.5-4.973 0-5.619-.25-6.475-2.5-.727-1.912-1.667-2.5-4-2.5s-3.273.588-4 2.5m-265.606-.084c-.299.778-.397 2.691-.219 4.25.315 2.75.517 2.843 6.794 3.137 9.542.448 11.22-.179 10.842-4.048-.364-3.721-2.225-4.502-11.092-4.655-4.134-.072-5.937.303-6.325 1.316m44.314 2.2c-.436.441-3.473.696-6.75.567L73 552.947V571h8v-6.3c0-7.033 1.014-8.7 5.294-8.7 2.077 0 3.045.579 3.43 2.053.437 1.672 1.208 1.996 4.156 1.75 2.987-.25 3.563-.653 3.291-2.303-.18-1.1-.906-2.597-1.612-3.327-1.52-1.571-8.714-2.708-9.851-1.557m70.316.406c-5.146 1.211-7.343 4.453-6.726 9.927.78 6.924 2.863 8.051 14.879 8.051 10.669 0 13.823-.921 13.823-4.035 0-1.565-.687-1.965-3.378-1.965-1.857 0-3.937.675-4.622 1.5-2.482 2.991-13 1.344-13-2.035 0-1.194 1.945-1.465 10.5-1.465H178v-2.809c0-1.545-.589-3.614-1.309-4.599-2.198-3.006-13.068-4.357-20.667-2.57m181.025-.066c-4.565 1.155-6.049 3.422-6.049 9.235 0 7.745 1.751 8.809 14.5 8.809 9.229 0 10.746-.246 12.536-2.036 1.121-1.121 1.769-2.471 1.441-3-.936-1.516-7.098-1.126-8.477.536-1.254 1.512-7.427 2.041-10.418.893-.87-.334-1.582-1.459-1.582-2.5 0-1.73.854-1.893 9.941-1.893 5.468 0 10.151-.34 10.408-.756.999-1.615-.712-6.436-2.76-7.778-2.665-1.746-14.877-2.689-19.54-1.51m33.975.066c-5.146 1.211-7.343 4.453-6.726 9.927.78 6.924 2.863 8.051 14.879 8.051 10.669 0 13.823-.921 13.823-4.035 0-1.565-.687-1.965-3.378-1.965-1.857 0-3.937.675-4.622 1.5-1.568 1.889-8.952 1.987-11.462.152-3.544-2.592-.781-3.652 9.521-3.652H393v-2.809c0-1.545-.589-3.614-1.309-4.599-2.198-3.006-13.068-4.357-20.667-2.57M101 562v9h8v-18h-8zm103.234-4.887c-5.571 2.758-8.416 6.418-8.033 10.334.255 2.603.847 3.188 4.016 3.971 5.397 1.334 11.457-.772 16.033-5.57 4.286-4.494 4.708-7.063 1.527-9.291-3.089-2.164-8.496-1.942-13.543.556m-80.484-.033c-2.226 1.297-2.339 7.188-.179 9.349 1.678 1.677 8.041 2.103 10.274.688 2.131-1.351 1.899-8.1-.335-9.733-2.205-1.612-7.244-1.769-9.76-.304m34.42.215c-1.748 2.107-.406 2.705 6.07 2.705 5.085 0 5.86-.243 5.574-1.75-.438-2.303-9.883-3.077-11.644-.955m181.497-.628c-.367.366-.667 1.266-.667 2 0 .958 1.639 1.333 5.833 1.333 6.368 0 7.74-.604 6.036-2.658-1.142-1.376-9.97-1.908-11.202-.675m33.503.628c-1.748 2.107-.406 2.705 6.07 2.705 5.085 0 5.86-.243 5.574-1.75-.438-2.303-9.883-3.077-11.644-.955m-166.555 1.793c-2.855 2.246-5.615 6.848-5.615 9.362 0 2.608 4.66 1.787 8.376-1.476 3.336-2.928 6.07-8.194 4.876-9.389-1.249-1.248-5.104-.49-7.637 1.503" fill="#171717" fill-rule="evenodd"/>
  <path d="M0 295.002v295.003l216.75-.253 216.75-.252.252-294.75L434.003 0H0zm.493.498c0 162.25.116 228.476.257 147.169s.141-214.057 0-295S.493 133.25.493 295.5M204.964 16.073C126.726 21.385 57.189 75.613 31.947 151c-6.69 19.978-9.017 33.64-9.655 56.67-.791 28.532 1.488 44.8 9.779 69.83C69.612 390.833 200.091 445.356 307.5 392.593c41.233-20.255 72.226-51.547 91.981-92.868C449.963 194.135 398.885 68.362 289 27.68c-18.219-6.745-35.315-10.311-56-11.679-7.975-.528-14.95-.904-15.5-.836s-6.191.477-12.536.908M203 19.046C148.133 24.287 97.653 52.131 64.79 95.28 24.171 148.612 13.486 219.62 36.692 282c39.142 105.212 157.994 156.158 261.096 111.919 27.537-11.816 53.304-30.915 72.066-53.419 44.206-53.018 57.672-123.248 36.144-188.5-3.808-11.541-14.15-33.285-20.553-43.213-30.659-47.532-80.536-79.951-135.749-88.234-12.889-1.933-34.823-2.641-46.696-1.507m24.904 10.05c-1.59 1.59-2.006 3.037-1.723 6 .256 2.694-.024 3.904-.905 3.904-.702 0-1.276.9-1.276 2 0 1.153.667 2 1.575 2 1.365 0 1.491 1.232.946 9.25-.346 5.087-.832 10.236-1.079 11.44-.304 1.479.282 2.706 1.804 3.777 2.254 1.586 2.254 1.586 2.887-4.69.348-3.452.686-9.089.75-12.527.117-6.232.125-6.25 3.076-6.25 1.628 0 6.378.509 10.557 1.13 5.95.885 7.477 1.445 7.041 2.582-.306.798-.557 2.109-.557 2.911 0 1.211-1.281 1.344-7.5.781-8.287-.751-8.45-.613-6.051 5.128 1.604 3.839 4.071 4.556 5.051 1.468.445-1.401 1.513-2 3.567-2 3.305 0 3.501.825 1.874 7.883-.846 3.668-.734 4.688.685 6.256.932 1.03 1.828 1.74 1.991 1.577s1.499-5.73 2.969-12.371l2.673-12.074 4.034.906c5.528 1.242 5.73 1.458 4.549 4.845-.661 1.896-1.729 2.978-2.94 2.978-1.046 0-1.902.493-1.902 1.096C260 59 263.378 64 264.665 64c.678 0 2.015-2.587 2.97-5.75s2.02-6.093 2.365-6.513c.908-1.107 7 1.233 7 2.689 0 .676-1.575 5.242-3.5 10.145-3.822 9.736-4.144 11.65-2.227 13.24.987.82 2.277-1.508 5.75-10.376 2.462-6.288 5.018-11.433 5.68-11.434C284.522 56 289 58.213 289 59.113c0 2.274-2.554 5.887-4.161 5.887-2.319 0-2.531 4.722-.339 7.559 1.378 1.783 1.604 1.807 2.782.299 1.144-1.467 1.579-1.487 4.058-.188l2.777 1.455-2.585 4.41c-1.841 3.141-2.396 5.158-1.931 7.011.832 3.314 1.143 2.959 7.927-9.046 3.109-5.5 5.825-10.177 6.038-10.393.212-.215 1.106.206 1.986.936 1.337 1.11 1.749 1.092 2.506-.107 1.261-2.001-.388-3.113-15.558-10.496-12.801-6.23-22.462-9.749-35.75-13.021-3.713-.914-6.75-2.077-6.75-2.583s-2.137-3.217-4.75-6.022c-7.128-7.654-13.357-9.707-17.346-5.718M230.2 33.2c-1.559 1.559-1.534 4.289.05 5.549.688.547 4.54 1.307 8.56 1.689l7.31.695-1.509-2.918c-.83-1.605-2.641-3.66-4.025-4.567-2.939-1.926-8.661-2.173-10.386-.448m-37.686 7.673c-9.219 1.365-11.045 1.929-11.348 3.504-.336 1.742.124 1.825 6.41 1.152 3.725-.399 7.369-.954 8.098-1.234.762-.293 1.326.174 1.326 1.098 0 .884.074 1.944.164 2.357s-1.978 1.056-4.595 1.431c-5.425.776-8.569 3.111-8.569 6.364C184 58.342 192.466 70 194.498 70c2.206 0 1.884-.835-1.973-5.104-3.794-4.199-5.37-8.451-3.739-10.082.572-.572 3.046-1.266 5.498-1.543l4.458-.502.709 6.614c.545 5.093 1.193 6.955 2.818 8.093 1.161.813 2.285 1.303 2.498 1.09s-.322-5.167-1.189-11.007C201.511 43.647 201.534 43 204.107 43c1.51 0 1.935-.448 1.5-1.582-.334-.87-.607-1.77-.607-2s-.338-.363-.75-.295-5.694.856-11.736 1.75M164 48.064a2646 2646 0 0 1-14.75 5.162c-3.361 1.147-4.674 4.774-1.729 4.774.837 0 2.009 1.068 2.603 2.374 1.258 2.76-.034 5.972-3.051 7.587-1.598.855-2.162.436-3.759-2.79-1.846-3.733-1.845-3.822.073-5.306 1.073-.829 1.632-2.025 1.241-2.657-1.053-1.704-13.796 4.76-13.348 6.771.186.837.987 1.354 1.779 1.149.793-.204 2.19-.584 3.105-.844 2.57-.729 4.372 3.347 2.787 6.307-1.008 1.884-1.002 2.643.031 3.887 1.613 1.944 13.19 7.522 15.611 7.522 2.469 0 .829-1.249-4.593-3.5-2.475-1.027-4.882-2.19-5.349-2.583-1.641-1.382.405-4.678 3.258-5.249 1.567-.313 3.495-1.215 4.284-2.004 1.216-1.216 1.805-1.228 3.871-.084 3.01 1.667 7.576 1.812 8.528.27.442-.714 1.395.184 2.518 2.373 1.546 3.012 5.874 5.899 5.898 3.933.004-.361-1.877-5.754-4.182-11.985-4.46-12.061-4.388-13.119.885-13.156 2.354-.016 2.286-.182 5.868 14.27 1.125 4.538 2.329 7.131 3.637 7.831 1.075.575 2.216.786 2.534.467.46-.46-2.546-13.275-5.327-22.709-.306-1.037.255-1.818 1.549-2.156 2.811-.735 2.632-3.72-.222-3.712-1.238.004-7.425 1.83-13.75 4.058m-7.696 6.498-3.196 1.4 1.519 4.457c2.071 6.076 3.663 7.276 6.868 5.176 1.378-.903 2.505-2.043 2.505-2.535 0-1.077-3.808-10.094-4.214-9.978-.158.044-1.724.711-3.482 1.48m135.174 9.48c-.894 1.729-1.48 3.266-1.302 3.415.948.796 4.821 2.543 5.637 2.543 1.414 0 3.632-5.966 2.581-6.943-.492-.458-1.883-1.131-3.092-1.495-1.774-.536-2.511-.058-3.824 2.48M121.489 68.63c-8.911 5.904-9.137 6.122-7.779 7.48.813.813 2.32.277 5.638-2.005 5.465-3.76 7.761-2.285 2.796 1.796-5.019 4.126-3.928 8.392 2.474 9.673 2.193.438 3.401.063 4.81-1.494 2.214-2.447 5.388-2.723 6.225-.543.795 2.074-2.431 5.463-5.201 5.463-2.817 0-4.016 2.865-2.03 4.851 1.28 1.279 2.069 1.307 5.446.193 2.909-.96 4.74-1.028 6.955-.255 2.868.999 4.177.735 4.177-.844 0-.397-1.531-1.01-3.401-1.36-3.283-.616-3.384-.771-2.89-4.452.443-3.301.133-4.112-2.305-6.03-3.155-2.482-6.525-2.194-9.904.844-1.1.989-2.562 1.593-3.25 1.342-2.362-.862-1.244-3.265 2.75-5.908 4.503-2.98 4.565-3.129 2.532-6.032-1.321-1.886-1.273-2.273.476-3.856 1.782-1.613 1.875-3.493.172-3.493-.386 0-3.847 2.084-7.691 4.63m207.834 2.62c-1.114 1.237-2.314 3.066-2.667 4.063-.353.998-1.095 1.534-1.649 1.191-1.742-1.076-3.241.51-1.95 2.064.918 1.107-.298 3.211-5.958 10.308-5.69 7.135-6.957 9.333-6.341 11 .681 1.841 1.584 1.08 7.756-6.541 3.843-4.742 7.31-9.121 7.705-9.729.519-.798 1.273-.763 2.704.124 2.966 1.838 3.732-.404 1.096-3.21-1.775-1.89-1.985-2.715-1.106-4.358 1.544-2.884 4.741-3.619 7.601-1.745 3.423 2.243 4.798 5.318 4.916 10.995.067 3.245.576 5.09 1.489 5.394 1.128.376 1.26-.626.706-5.342-1.586-13.493-8.64-20.504-14.302-14.214M201.5 80.043c-30.979 4.806-57.085 18.332-78.736 40.795-17.668 18.331-29.396 40.637-34.927 66.428-3.122 14.554-3.122 38.914 0 53.468 5.897 27.498 17.741 49.211 37.525 68.787 25.419 25.152 54.168 37.709 89.638 39.15 38.35 1.559 73.525-12.133 100.541-39.135C341.682 283.41 355 251.149 355 213.955c0-37.144-13.377-69.536-39.431-95.482C296.847 99.828 275.512 88.101 249 81.88c-9.806-2.301-37.585-3.375-47.5-1.837m131.083 4.822c-.294.476 2.353 3.638 5.882 7.026 3.53 3.389 6.682 6.996 7.005 8.016.451 1.419-1.293 3.442-7.441 8.63-5.977 5.044-8.029 7.397-8.029 9.205 0 2.17 1.023 1.55 9.547-5.783 8.755-7.531 9.655-8.065 10.848-6.433.716.979 1.707 1.529 2.203 1.223.496-.307.959.412 1.029 1.597.096 1.617-2.077 3.774-8.717 8.654-6.751 4.962-8.852 7.061-8.877 8.872-.038 2.722-1.15 3.303 12.004-6.273 7.932-5.774 8.145-5.86 9.93-4 3.342 3.483 3.312 5.723-.104 7.674-2.286 1.305-3.449 1.486-4.414.685-1.62-1.345-3.449 1.595-3.449 5.544 0 2.153.355 2.52 1.944 2.016 1.41-.448 2.435.131 3.729 2.106.982 1.498 1.344 2.878.806 3.067-4.118 1.446-9.025 5.186-9.299 7.086-.175 1.223-.028 2.223.327 2.223s5.117-2.475 10.581-5.5 10.303-5.5 10.754-5.5c1.482 0 8.454 15.712 7.592 17.108-1.128 1.824-3.832.78-8.05-3.108-2.387-2.2-4.739-4-5.227-4s-2.067.928-3.51 2.063c-4.897 3.852-5.176 12.616-.558 17.532 2.105 2.241 2.378 2.292 4.066.765 1.733-1.569 1.684-1.78-1.173-5.033-2.043-2.327-2.982-4.454-2.982-6.755 0-5.25 2.38-5.232 8.037.06 4.828 4.516 5.658 4.754 10.123 2.909 1.167-.482 1.86-.053 2.335 1.444.91 2.866 4.114 2.244 3.699-.718-.191-1.367 1.211-4.104 3.75-7.316 3.977-5.03 4.878-8.105 3.168-10.804-.679-1.072-1.315-1.109-3.053-.179-2.036 1.09-2.086 1.342-.682 3.484 1.398 2.134 1.324 2.565-.973 5.679-1.368 1.853-2.979 3.369-3.581 3.369s-2.267-3.037-3.701-6.75c-1.433-3.713-3.199-6.75-3.923-6.75s-1.035-.456-.69-1.014c.344-.558-.701-3.465-2.324-6.461s-2.444-5.352-1.824-5.236c1.502.282 3.099-10.024 2.252-14.538-1.594-8.495-8.176-11.436-12.935-5.78l-2.5 2.971-4.339-5.424c-2.386-2.983-4.901-5.445-5.589-5.471-.687-.026-1.25-.625-1.25-1.331C345 94.426 335.013 84 333.778 84c-.363 0-.901.389-1.195.865m-238.88 6.927c-4.387 4.493-4.645 5.661-1.053 4.76 2.17-.545 3.324-.007 6.376 2.973 3.393 3.313 3.656 3.952 2.939 7.13-.952 4.223-3.588 7.345-6.199 7.345-1.609 0-1.819-.482-1.28-2.935.486-2.214.137-3.442-1.421-5-1.136-1.136-2.74-2.065-3.565-2.065-1.946 0-1.896-.905.176-3.195 1.318-1.456 1.416-2.113.459-3.07-.847-.847-1.434-.892-1.927-.148-.389.589-2.434 3.153-4.543 5.699-4.435 5.351-4.084 8.448.463 4.092l2.908-2.787 2.162 2.162c1.848 1.849 1.995 2.528 1.012 4.686-.982 2.155-.872 2.672.754 3.542 1.048.56 3.656 1.019 5.796 1.019 4.421 0 8.24-3.159 8.24-6.814 0-2.72 1.152-2.781 3.5-.186 1.76 1.945 5.5 2.78 5.5 1.228 0-.425-3.813-4.565-8.473-9.201-7.626-7.587-8.326-8.592-6.998-10.059C99.871 89.485 99.624 88 98.036 88c-.346 0-2.296 1.706-4.333 3.792m232.121 1.911c-3.007 3.439-6.008 17.297-3.745 17.297.69 0 1.007-.247.705-.549-.972-.973 1.23-8.662 3.323-11.601 2.206-3.099 5.602-3.772 6.551-1.299.34.887-.356 2.563-1.628 3.917-1.597 1.7-1.967 2.822-1.315 3.987.813 1.453 1.097 1.41 2.751-.417 2.07-2.288 4.549-2.623 6.317-.855 1.597 1.597 2.551.444 1.742-2.105-.362-1.14-1.641-2.327-2.842-2.637-1.2-.31-2.858-1.998-3.683-3.752-1.784-3.793-5.753-4.757-8.176-1.986m33.753 14.212c-1.646 1.819-1.642 2.059.071 4.75.993 1.559 2.065 3.06 2.382 3.335.316.275 1.621 2.22 2.9 4.323 3.033 4.99 4.57 3.555 4.57-4.268 0-4.345-.489-6.385-1.905-7.95-2.373-2.622-5.745-2.702-8.018-.19m-282.195 3.354c-1.596 2.115-2.134 2.231-6.367 1.363-5.869-1.202-9.545-.279-11.644 2.925-2.39 3.646-.614 6.99 4.531 8.532l3.993 1.196-3.947 7.192c-2.17 3.955-3.647 7.491-3.281 7.857 1.562 1.562 3.005.333 5.729-4.882 4.02-7.692 6.047-7.163 6.27 1.638.092 3.61-.133 7.042-.5 7.628-.366.585-3.027 1.763-5.912 2.618l-5.247 1.554.247-3.086c.452-5.664-1.979-4.017-5.02 3.4-6.238 15.215-11.316 35.114-9.44 36.99 1.498 1.498 3.206.063 3.206-2.694 0-2.953 1.184-3.743 4.397-2.937 1.53.384 2.607 1.456 2.796 2.781.246 1.728.938 2.128 3.489 2.016 3.77-.166 17.511-6.28 17.072-7.597-.471-1.413-1.454-1.165-7.106 1.794l-5.251 2.749-2.584-2.583c-1.42-1.421-4.435-3.083-6.698-3.692s-4.112-1.428-4.109-1.82c.019-2.533 2.293-8.211 3.289-8.211.66 0 5.408 1.402 10.551 3.115 7.845 2.614 9.76 2.93 11.882 1.963 1.392-.634 2.311-1.372 2.043-1.641-.269-.268-5.614-2.216-11.88-4.328-10.49-3.536-11.369-4.027-11.112-6.203.455-3.861 1.801-4.399 6.124-2.45 7.394 3.335 15.097-.235 15.097-6.995 0-3.124.273-3.461 2.8-3.461 1.54 0 3.37-.562 4.067-1.25 1.308-1.29 1.696-.959 5.581 4.75 1.049 1.541 1.641 1.731 2.58.827.953-.918.756-1.821-.905-4.154-1.168-1.64-2.123-3.222-2.123-3.517s1.864-.449 4.142-.345c5.825.266 6.218-1.985.497-2.842-4.442-.667-4.476-.701-3.929-4.071.51-3.143.354-3.398-2.079-3.398-2.32 0-2.631.398-2.631 3.365 0 4.284-3.448 8.855-6.365 8.439-1.982-.282-2.117-.82-1.883-7.527.249-7.117.209-7.246-2.75-8.776-3.285-1.699-3.616-2.487-1.802-4.301.92-.92.925-1.475.024-2.376-.902-.902-1.609-.786-3.029.5-2.4 2.171-4.481 2.123-6.54-.153-2.217-2.45-2.085-3.756.568-5.614 2.464-1.727 6.507-2.013 8.713-.618 1.185.75 1.209 1.182.137 2.473-1.085 1.308-1.017 1.672.415 2.222.985.378 2.063.092 2.536-.672.873-1.413 2.007-.786 13.976 7.739 4.955 3.529 9 4.565 9 2.304 0-.467-4.267-3.873-9.483-7.571-8.138-5.769-9.403-7.04-8.919-8.969.803-3.198-1.156-3.927-3.216-1.196M134 129v10h37c35.667 0 37.072.072 39 2 1.962 1.962 2 3.333 2 73s-.038 71.038-2 73c-1.928 1.928-3.333 2-39 2h-37v20h173v-20h-36.889c-34.831 0-37.021-.107-39.25-1.912l-2.361-1.911v-71.053c0-66.862.105-71.158 1.785-72.838 1.639-1.64 4.84-1.809 39.25-2.071L307 138.93V119H134zm225.278-2.344c-2.088 1.457-2.132 1.726-.724 4.447 1.745 3.375 1.661 3.355 5.496 1.371 3.394-1.755 3.517-2.219 1.393-5.251-1.811-2.587-3.101-2.705-6.165-.567M67 149.168c-5.408 1.527-5.484 2.376-.388 4.322 4.545 1.735 4.751 1.734 6.047-.038 1.913-2.617 1.696-5.47-.409-5.362-.963.05-3.325.535-5.25 1.078m315 14.938c0 .608.703 3.819 1.563 7.137 1.072 4.138 1.24 6.354.533 7.061-1.139 1.139-1.349.73-3.057-5.951-1.487-5.816-3.746-6.34-7.88-1.829-2.541 2.773-3.176 4.171-2.639 5.814.389 1.189.928 3.85 1.199 5.912.558 4.262-.642 4.827-3.719 1.75-2.47-2.47-2.671-8.802-.417-13.161 1.219-2.356 1.276-2.966.25-2.65-1.966.606-5.833 8.761-5.833 12.3 0 4.832 2.462 7.511 6.902 7.511 2.4 0 4.395-.67 5.443-1.829 1.932-2.135 2.152-6.986.482-10.651-.869-1.907-.881-2.866-.048-3.699 1.28-1.28 2.457.92 4.205 7.854 1.017 4.033 1.154 4.146 4.033 3.32 2.652-.76 3.047-.587 3.59 1.575.391 1.559 1.326 2.43 2.608 2.43 1.164 0 1.818-.522 1.565-1.25-.238-.687-1.524-6.087-2.857-11.999-1.949-8.648-2.765-10.75-4.173-10.75-.962-.001-1.75.497-1.75 1.105m-5.675 62.313c-4.293 1.922-6.346 5.38-7.009 11.811l-.556 5.385 13.244 1.735c7.285.954 13.485 1.495 13.777 1.202.293-.293.575-3.423.626-6.957.08-5.543-.25-6.791-2.407-9.101-3.289-3.523-4.634-4.181-10-4.896-2.929-.391-5.608-.104-7.675.821M50.5 229.545c-4.4.717-8.562 1.339-9.25 1.38-.687.041-1.25 1.232-1.25 2.647 0 2.54.07 2.563 5.598 1.873 5.127-.641 5.568-.542 5.25 1.178-.191 1.032-2.225 2.779-4.519 3.882-5.319 2.555-5.647 2.919-4.863 5.389.629 1.98.78 1.993 4.842.42 2.305-.893 4.905-2.232 5.777-2.975 1.336-1.138 2.065-1.111 4.639.173 3.382 1.687 6.823.944 9.267-2.001 1.521-1.832 1.805-6.358.676-10.761-.619-2.414-1.161-2.735-4.436-2.63-2.052.065-7.331.707-11.731 1.425m325.616 3.339c-1.164 1.164-2.116 2.96-2.116 3.991 0 2.054 1.483 2.519 11.75 3.678 6.199.7 6.25.685 6.25-1.813 0-4.331-3.033-6.941-8.697-7.485-4.227-.406-5.423-.135-7.187 1.629m-318.866.812c-4.283.844-2.079 5.641 2.359 5.134 2.324-.265 2.891-.817 2.891-2.816 0-2.579-1.211-3.114-5.25-2.318m309.844 16.054c-2.541 9.692-2.644 9.028 1.564 10.13 14.504 3.798 20.762 5.173 21.78 4.782 1.078-.414 3.562-8.946 3.562-12.238 0-.838-.992-1.424-2.412-1.424-2.035 0-2.518.626-3.088 4-.473 2.801-1.174 3.995-2.338 3.985-3.192-.03-4.295-1.578-3.974-5.583.269-3.371.013-3.944-1.881-4.214-1.81-.258-2.31.31-2.861 3.25-.673 3.585-2.427 4.495-5.235 2.714-.971-.617-1.033-1.491-.25-3.55 1.626-4.276 1.289-5.602-1.422-5.602-2.003 0-2.645.699-3.445 3.75m-318.906.989c-4.809.335-5.283.578-5 2.565.242 1.702 1.097 2.27 3.803 2.527 5.682.54 6.967 5.105 2.14 7.601-2.296 1.188-2.773 1.992-2.384 4.026.267 1.398.825 2.542 1.239 2.542s5.983-2.975 12.374-6.611c10.993-6.254 11.588-6.755 10.993-9.25-.346-1.452-.819-2.977-1.05-3.389-.413-.736-11.613-.741-22.115-.011M56 257c0 2.472 1.484 2.472 6 0l3.5-1.916-4.75-.042c-4.097-.036-4.75.233-4.75 1.958m305.614 11.027c-1.575 4.431-2.695 8.207-2.489 8.391s1.335.628 2.509.988c1.709.525 2.26.151 2.769-1.875.349-1.392 1.072-2.531 1.607-2.531s5.102 1.554 10.15 3.454 9.498 3.257 9.889 3.016c.39-.241.943-1.33 1.228-2.42.369-1.412-.099-2.173-1.63-2.653-1.181-.37-5.674-2.015-9.986-3.656l-7.838-2.984.634-3.378c.364-1.939.223-3.379-.33-3.379-.53 0-1.568-.232-2.307-.516-.936-.359-2.212 1.93-4.206 7.543M66.5 267.155c-3.148 1.722-4.5 3.964-4.5 7.465 0 1.78-.762 3.999-1.693 4.93-1.59 1.59-1.802 1.557-3.5-.54-.994-1.227-1.807-3.244-1.807-4.482 0-1.861-.432-2.168-2.5-1.773-2.915.557-3.196 2.644-1.048 7.783 2.236 5.353 7.998 6.78 12.898 3.195 1.02-.745 2.401-3.797 3.076-6.793 1.419-6.301 3.323-7.056 5.574-2.212 1.465 3.153 4.252 4.292 5.512 2.252 1.015-1.642-1.478-7.843-3.811-9.477-2.511-1.758-5.399-1.881-8.201-.348m289.989 12.879c-.369 1.164-.488 2.3-.264 2.525.224.224 5.553 2.853 11.841 5.842 10.25 4.872 11.563 5.268 12.684 3.826.688-.885 1.25-1.908 1.25-2.273 0-.681-19.028-10.193-22.759-11.378-1.569-.497-2.245-.14-2.752 1.458m-288.263 5.892c-5.651 3.184-10.525 6.04-10.831 6.346-.307.306-.043 1.518.586 2.693l1.144 2.136 4.547-2.541c5.055-2.826 5.683-2.707 7.849 1.48l1.506 2.913-5.034 2.551c-4.452 2.256-4.912 2.779-3.978 4.523.58 1.085 1.524 1.973 2.097 1.973C67.703 308 89 295.936 89 295.035c0-.435-.695-1.367-1.544-2.072-1.28-1.062-2.234-.894-5.566.979-2.212 1.243-4.16 2.102-4.329 1.909s-1.05-1.813-1.959-3.6l-1.653-3.25 3.276-1.996c1.801-1.099 3.672-2.131 4.158-2.295 1.277-.432-.295-4.723-1.7-4.641-.651.037-5.806 2.673-11.457 5.857m284.287 2.694-1.717 2.621 6.352 6.519c3.494 3.586 5.677 6.298 4.852 6.026-.825-.271-4.617-1.522-8.427-2.78l-6.927-2.287-1.856 2.292c-1.021 1.26-1.728 2.655-1.573 3.098s5.008 4.162 10.783 8.263c9.292 6.597 10.644 7.27 11.75 5.85.688-.882 1.25-1.858 1.25-2.168 0-.309-3.488-2.98-7.75-5.934s-6.85-5.043-5.75-4.641c14.47 5.29 15.955 5.62 17.26 3.834 1.108-1.515.418-2.591-5.469-8.524-3.706-3.734-6.425-6.789-6.043-6.789s4.137 2.036 8.346 4.524c7.153 4.229 7.739 4.408 8.997 2.75.74-.976 1.347-1.999 1.349-2.274.004-.514-22.275-13-23.196-13-.283 0-1.287 1.179-2.231 2.62m-265.529 9.899c-1.032 1.244-.926 1.887.588 3.561 1.15 1.271 1.466 2.302.835 2.731C78.62 311.464 72 316.609 72 317.561c0 .657.608 1.699 1.352 2.316 1.049.87 3.009-.065 8.75-4.175 10.517-7.529 9.938-7.301 11.902-4.696 1.575 2.088 1.918 2.162 3.822.829 2.069-1.45 2.041-1.535-2.618-8.129-4.909-6.948-6.126-7.715-8.224-5.187m251.49 10.509c-.987 1.092-1.61 2.129-1.385 2.307l10.32 8.138c7.604 5.999 10.264 7.592 11.44 6.85 2.8-1.766 2.265-2.996-3.064-7.05a617 617 0 0 1-10.4-8.124c-5.062-4.062-5.134-4.084-6.911-2.121M90.41 320.117c-4.901 4.465-9.029 8.42-9.173 8.791-.145.37.345 1.506 1.09 2.524 1.282 1.754 1.566 1.659 5.388-1.794 3.507-3.168 4.199-3.447 5.288-2.134 1.031 1.242.787 2.215-1.375 5.482-3.043 4.599-3.161 5.327-1.134 7.009 1.228 1.019 1.849.818 3.48-1.127 1.092-1.303 2.534-3.83 3.206-5.618.952-2.531 1.802-3.25 3.847-3.25 4.146 0 7.433-4.272 7.091-9.215-.146-2.127-5.878-8.785-7.562-8.785-.68 0-5.246 3.653-10.146 8.117m7.559.416c-2.224 2.368-2.26 2.604-.644 4.221 1.32 1.319 2.11 1.463 3.444.627 2.221-1.392 2.727-4.724.942-6.206-1.086-.901-1.896-.607-3.742 1.358m229.86 1.066c-1.466 1.466-.933 2.236 6.377 9.22 11.807 11.281 11.298 11.049 15.46 7.046 5.121-4.926 5.995-6.909 3.763-8.541-1.598-1.168-2.209-.961-4.931 1.678l-3.108 3.012-7.604-7.007c-4.183-3.854-7.774-7.007-7.981-7.007s-1.096.72-1.976 1.599M104.114 334.76c-8.609 9.278-8.93 9.786-7.309 11.586 1.633 1.814 2.031 1.524 10.925-7.982 5.076-5.425 9.239-10.093 9.25-10.373.011-.281-.854-1.055-1.921-1.722-1.743-1.089-2.861-.221-10.945 8.491m13.561-5.043c-.313.506-1.328 4.257-2.255 8.336-1.167 5.13-2.726 8.777-5.055 11.828-2.601 3.407-3.112 4.719-2.244 5.765 1.861 2.242 3.462 1.563 6.44-2.734 2.099-3.028 4.908-5.131 10.84-8.114 7.393-3.717 7.862-4.132 6.112-5.412-2.606-1.905-3.482-1.771-7.859 1.203-2.095 1.424-3.998 2.4-4.229 2.169s.311-2.563 1.205-5.184c1.56-4.58 1.545-4.843-.382-6.771-1.103-1.102-2.261-1.591-2.573-1.086m198.443 2.335-2.381 1.982 3.131 7.46c1.723 4.103 3.132 7.724 3.132 8.046s-2.946-1.914-6.547-4.969c-6.429-5.454-6.593-5.525-9.046-3.918-1.374.9-2.365 2.148-2.202 2.773.66 2.542 13.377 21.555 14.423 21.564.62.006 1.624-.589 2.232-1.321.847-1.021-.101-3.044-4.072-8.679-5.635-7.999-5.17-8.108 3.317-.781 3.75 3.237 6.15 4.63 7.25 4.208 2.387-.916 2.579-.114-3.803-15.917-1.748-4.328-1.832-4.404 5.855 5.318 4.658 5.891 5.002 6.122 6.747 4.543 1.083-.98 1.501-2.116 1.018-2.763-3.189-4.266-15.551-19.139-16.052-19.313-.341-.118-1.692.678-3.002 1.767m-190.65 20.335-9.968 9.388 2.867 1.326c2.609 1.207 3.03 1.127 4.661-.887 2.121-2.62 2.824-2.706 5.692-.698 1.908 1.337 2.035 1.888 1.071 4.653-.932 2.673-.821 3.336.749 4.484 1.013.741 2.123 1.347 2.466 1.347.659 0 7.994-23.001 7.994-25.069 0-1.34-2.917-3.849-4.532-3.899-.568-.018-5.518 4.192-11 9.355m165.233-3.754c-1.87.99-2.632 2.044-2.297 3.175.276.93 1.665 6.417 3.086 12.192 3.472 14.113 3.09 13.295 5.59 11.957 1.739-.93 1.999-1.722 1.479-4.496-.544-2.898-.26-3.611 2.034-5.114 2.624-1.719 2.705-1.701 5.103 1.086 2.206 2.564 2.666 2.711 4.839 1.548l2.402-1.285-6.874-7.598c-11.644-12.87-12.086-13.2-15.362-11.465m-159.256 4.425c-2.43 2.536-2.666 3.191-1.427 3.974.815.516 1.785.944 2.154.953.807.018 3.209-6.937 2.605-7.542-.233-.232-1.732.944-3.332 2.615m18.656 12.086c-5.242 12.118-5.423 13.786-1.504 13.841.603.008 3.435-5.264 6.293-11.716 4.813-10.864 5.069-11.826 3.463-13-.955-.698-2.019-1.269-2.367-1.269s-2.995 5.465-5.885 12.144m124.399-9.19c-9.77 4.041-9.372 20.134.631 25.49 3.175 1.7 4.135 1.793 7.653.739 2.212-.663 5-1.997 6.195-2.965l2.173-1.759-1.918-4.98c-1.055-2.738-2.189-5.74-2.522-6.67-.556-1.558-.912-1.57-4.537-.146-3.051 1.199-3.822 1.971-3.437 3.441.272 1.043 1.327 1.896 2.343 1.896 2.251 0 4.54 3.779 3.139 5.18-.531.531-2.441.82-4.244.643-4.145-.408-7.129-4.231-7.273-9.316-.121-4.285 2.844-7.507 6.908-7.507 1.882 0 2.389-.531 2.389-2.5 0-2.076-.466-2.489-2.75-2.437-1.512.035-3.65.436-4.75.891m19.819.546c1.858 7.118 1.965 7.244 4.681 5.514 1.251-.796.943-1.501-1.851-4.235-2.63-2.572-3.239-2.848-2.83-1.279m-131.864 3.955c-3.406 3.405-3.213 7.612.545 11.892 5.045 5.746 3.215 9.367-3.087 6.108-3.111-1.609-3.334-1.6-4.636.178-1.198 1.634-1.104 2.082.749 3.585 5.279 4.284 12.868 2.82 15.044-2.902 1.255-3.302.393-5.976-3.289-10.196-2.717-3.115-2.822-3.508-1.331-4.999 1.49-1.489 1.842-1.49 4.429-.005 2.632 1.51 2.883 1.495 3.965-.238 1.584-2.536 1.547-2.624-1.794-4.352-4.244-2.195-7.783-1.884-10.595.929m95.626 1.474c-1.194.756-.894 2.895 1.896 13.485 1.824 6.922 3.813 12.579 4.42 12.571s1.721-.407 2.476-.885c1.131-.717.786-3.09-1.961-13.485-1.834-6.938-3.802-12.608-4.373-12.6s-1.678.42-2.458.914m-79.503 1.196c-.25.756-1.584 6.538-2.964 12.848-1.897 8.677-2.217 11.66-1.311 12.235 2.494 1.586 3.704.651 4.801-3.708 1.124-4.462 1.17-4.5 5.442-4.5 3.488 0 4.713-.513 6.429-2.696 2.948-3.748 2.464-9.92-.975-12.426-3.387-2.469-10.808-3.608-11.422-1.753m71.601.744c-1.064.674-1.102 2.08-.198 7.234.618 3.518 1.363 7.297 1.657 8.397s-1.991-1.718-5.078-6.263c-5.203-7.661-5.81-8.215-8.336-7.609-1.498.359-2.825.729-2.949.821-.683.509 4.389 25.944 5.225 26.206.55.172 1.594-.064 2.321-.524 1.275-.807.845-5.423-1.503-16.131-.318-1.452 1.916 1.063 5.331 6 5.045 7.295 6.23 8.451 8.365 8.152 1.367-.191 2.587-.442 2.711-.559.666-.622-4.383-25.984-5.225-26.248-.55-.172-1.594.064-2.321.524m-55.192 13.881a3577 3577 0 0 0-4.759 13c-.282.797.521 1.25 2.217 1.25 2.055 0 2.896-.681 3.705-3 .885-2.541 1.567-3 4.448-3 3.059 0 3.402.282 3.402 2.8 0 3.216 1.603 5.2 4.2 5.2 2.171 0 2.159.588.271-12.72-2.268-15.981-2-15.28-5.838-15.28h-3.329zm-12.916-7.044c-.766 2.772-.715 3.902.203 4.484 1.761 1.119 2.389 1.004 4.155-.761 2.145-2.146 1.975-5.143-.363-6.394-2.771-1.483-2.866-1.419-3.995 2.671M210 369.5c0 2.111.467 2.5 3 2.5h3v22h5v-21.873l3.25-.314c2.491-.24 3.325-.838 3.57-2.563.311-2.191.083-2.25-8.75-2.25-9.008 0-9.07.017-9.07 2.5m-9.389 5.914c-.331 1.32-.878 3.117-1.214 3.993-.44 1.147-.021 1.593 1.496 1.593 1.734 0 2.107-.608 2.107-3.441 0-4.126-1.544-5.512-2.389-2.145M24 434.264v10.264l10.346 18.486L44.692 481.5l23.927.267 23.928.268 11.226-18.961L115 444.113v-20.171l-13.161.279-13.162.279-9.327 16.496c-5.13 9.073-9.725 16.629-10.211 16.791s-5.103-7.369-10.261-16.736l-9.378-17.03-12.75-.01L24 424zm97.667-9.597c-.367.366-.667 13.416-.667 29V482h31v-58h-14.833c-8.159 0-15.134.3-15.5.667M159 433.968v9.969l11.494.281 11.494.282-10.494 18.372C165.722 472.976 161 481.414 161 481.622s15.975.378 35.5.378H232v-19.938l-12.031-.281-12.031-.281 9.131-15.5c5.022-8.525 10.023-16.962 11.113-18.75l1.981-3.25H159zm90.684 9.314L239 462.599V482h25.569l9.392-17.142c11.031-20.135 8.62-20.367 21.114 2.038L303.497 482H330v-19.876l-11.31-18.812-11.311-18.812-23.505-.268-23.505-.267zM357.64 426.25c-.773 1.238-5.733 10.004-11.023 19.48L337 462.96V482h83.055l-.278-14.25-.277-14.25-13.75-.278-13.75-.278V463h-20.04l3.059-5.25a942 942 0 0 0 6.27-10.97l3.211-5.721 17.5-.279 17.5-.28.29-8.25.291-8.25h-61.035zM56.25 494.764l-32.25.264V513h50v5H24v6h72.081l-.291-8.25-.29-8.25-25.25-.267-25.25-.267v-4.932l25.25-.267 25.25-.267.313-3.25c.207-2.148-.132-3.278-1-3.331-.722-.045-2.438-.157-3.813-.25s-17.013-.05-34.75.095M105 498v3h25v23h21v-23h26v-6h-72zm81 12v15.025l35.75-.262 35.75-.263.313-3.25.314-3.25H207v-4.959l20.75-.271 20.75-.27v-6l-21.317-.27-21.317-.27.317-2.23.317-2.23 25.815-.267 25.815-.267-.315-2.733-.315-2.733-35.75-.263-35.75-.262zm81-.5V524h72.133l-.317-2.75-.316-2.75-25.25-.267-25.25-.267V512h41v-6h-20.5c-19.774 0-20.5-.07-20.5-1.983 0-1.918.829-1.991 25.25-2.25l25.25-.267.313-3.25.314-3.25H267zm81 0V524h72.133l-.317-2.75-.316-2.75-25.25-.267-25.25-.267V495h-21zm-226.25 27.25c54.587.143 143.912.143 198.5 0s9.925-.26-99.25-.26-153.838.117-99.25.26m123.681 6.189c-4.802 1.149-9.245 4.184-12.051 8.234-1.901 2.743-3.399 3.795-5.727 4.021-3.693.358-3.841 2.165-.215 2.619 2.023.254 2.318.636 1.549 2-.523.928-2.757 5.683-4.964 10.566l-4.013 8.88-5.087-.675c-4.552-.604-5.049-.486-4.73 1.121.294 1.476 1.362 1.791 6.001 1.774 7.285-.028 8.7-1.329 14.927-13.729l4.897-9.75h4.491c3.325 0 4.491-.389 4.491-1.5 0-1.048-1.056-1.5-3.5-1.5-4.036 0-4.189-.435-1.554-4.433 3.623-5.495 8.837-7.033 11.295-3.331 1.282 1.932 1.708 2.051 3.122.878 2.378-1.974 2.009-4.022-.928-5.139-2.859-1.087-3.599-1.09-8.004-.036m-212.947 2.243c-.302.786-.422 7.029-.266 13.873L32.5 571.5H37c4.447 0 4.504-.043 4.802-3.611l.302-3.61 10.011-.69c5.506-.379 11.058-1.166 12.338-1.749 5.764-2.627 5.901-12.227.226-15.832-3.273-2.079-31.437-2.801-32.195-.826m67.901.257c-1.193 3.109.392 4.7 4.357 4.372 3.259-.27 3.758-.643 3.758-2.811s-.499-2.541-3.758-2.811c-2.69-.222-3.928.133-4.357 1.25m35.329-.82c-.393.393-.714 2.356-.714 4.361v3.648l-5.964-.432c-7.153-.517-10.423.191-13.061 2.829-2.696 2.696-2.732 10.818-.064 14.114 1.829 2.259 2.463 2.361 14.75 2.361H143.5v-27l-3.536-.298c-1.944-.163-3.857.024-4.25.417m134.298.627c-4.286 1.541-6.459 5.448-5.067 9.109 1.61 4.234 4.787 5.49 16.056 6.347 9.494.722 10.499.986 10.499 2.76 0 4.232-15.326 4.6-17.562.423-.853-1.594-1.906-1.933-5.252-1.689-3.807.276-4.161.531-3.905 2.804.154 1.375 1.18 3.4 2.279 4.5 1.807 1.808 3.332 2 15.866 2 15.03 0 17.152-.689 18.486-6.004 1.75-6.976-3.87-10.496-16.757-10.496-6.143 0-8.736-.393-9.619-1.456-2.136-2.574-.09-3.544 7.473-3.544 5.669 0 7.596.365 8.268 1.566.637 1.139 2.083 1.48 5.3 1.25 3.784-.27 4.376-.605 4.097-2.316-.179-1.1-1.175-2.87-2.212-3.934-1.601-1.642-3.592-1.983-13.174-2.255-7.312-.207-12.517.122-14.776.935m129.655-.579c-.367.366-.667 6.666-.667 14V572h8v-28h-3.333c-1.834 0-3.634.3-4 .667M306.29 550c-.288 1.1-1.146 2-1.907 2-.809 0-1.383 1.038-1.383 2.5 0 1.556.567 2.5 1.5 2.5 1.135 0 1.5 1.227 1.5 5.045 0 4.024.497 5.543 2.455 7.5 2.088 2.089 3.397 2.455 8.777 2.455 7.664 0 11.036-1.865 10.575-5.847-.24-2.076-.921-2.723-3.131-2.977-2.169-.248-2.951.158-3.367 1.75-.391 1.494-1.349 2.074-3.426 2.074-2.789 0-2.883-.161-2.883-4.95v-4.95l5.75-.3c5.094-.266 5.786-.557 6.07-2.55.301-2.121-.028-2.25-5.75-2.25-5.403 0-6.07-.22-6.07-2 0-1.674-.667-2-4.094-2-3.252 0-4.201.411-4.616 2M42 554v4h6.929C55.863 558 59 556.639 59 553.629c0-2.671-2.56-3.629-9.7-3.629H42zm31 8v10h8v-6.3c0-3.567.521-6.821 1.2-7.5 1.961-1.961 6.594-1.453 7.831.858 1.568 2.929 7.336 2.375 7.78-.747.51-3.577-3.119-6.311-8.377-6.311-2.511 0-5.436.466-6.5 1.035-1.333.714-1.934.714-1.934 0 0-.569-1.8-1.035-4-1.035h-4zm27.449-8.727c-.294.767-.403 5.182-.242 9.811l.293 8.416h8v-19l-3.758-.311c-2.519-.208-3.934.149-4.293 1.084m53.051-.168c-3.435 1.965-4.5 4.114-4.5 9.086 0 8.298 3.513 10.243 17.453 9.662 7.069-.294 8.852-.713 10.641-2.502 1.182-1.182 1.843-2.645 1.468-3.25-.869-1.407-7.825-1.438-9.222-.041-1.436 1.436-10.576.768-11.095-.81-.31-.941 1.928-1.25 9.049-1.25 10.401 0 12.273-.894 11.159-5.331-1.235-4.922-3.859-6.145-13.806-6.439-5.533-.163-9.937.183-11.147.875m181.857-.113c-5.574 2.249-7.174 10.782-2.945 15.702 2.292 2.667 2.9 2.823 12.256 3.142 8.859.303 10.118.12 12.588-1.823 4.182-3.289 3.578-5.013-1.756-5.013-2.476 0-4.5.472-4.5 1.05 0 1.53-11.238.765-11.754-.8-.31-.939 1.906-1.254 8.921-1.265 11.262-.019 12.33-.521 11.42-5.373-.946-5.044-4.405-6.629-14.287-6.549-4.29.035-8.764.453-9.943.929m33.143.113c-3.435 1.965-4.5 4.114-4.5 9.086 0 8.286 3.522 10.244 17.376 9.662 6.531-.274 8.887-.78 10.52-2.258 3.397-3.075 2.671-4.595-2.196-4.595-2.365 0-4.777.477-5.36 1.06-1.436 1.436-10.576.768-11.095-.81-.309-.938 1.836-1.25 8.59-1.25 4.951 0 9.713-.273 10.583-.607 2.333-.895 1.924-4.884-.83-8.087-2.283-2.656-2.912-2.82-11.75-3.076-5.675-.163-10.123.18-11.338.875m-162.191 2.538c-4.591 1.626-11.309 8.282-11.309 11.205 0 2.135 2.54 4.623 5.701 5.586 4.786 1.457 15.123-3.547 17.992-8.709 2.29-4.121 1.617-6.697-2.161-8.276-4.148-1.733-4.82-1.72-10.223.194m-82.911 2.762c-.296.772-.395 2.91-.218 4.75l.32 3.345h11l.319-3.898c.2-2.443-.173-4.211-1-4.735-2.231-1.414-9.822-1.023-10.421.538M158 558c0 .557 2.686 1 6.059 1 3.785 0 5.827-.375 5.441-1-.34-.55-3.066-1-6.059-1s-5.441.45-5.441 1m49.041 1.619c-3.967 3.338-6.595 8.227-5.182 9.64 1.723 1.723 7.082-1.212 9.849-5.393 4.228-6.39 1.178-9.165-4.667-4.247M339.5 558c-.386.625 1.656 1 5.441 1 3.373 0 6.059-.443 6.059-1 0-.55-2.448-1-5.441-1s-5.719.45-6.059 1m33.5 0c0 .557 2.686 1 6.059 1 3.785 0 5.827-.375 5.441-1-.34-.55-3.066-1-6.059-1s-5.441.45-5.441 1" fill="none"/>
  <path d="M204.964 16.073C126.726 21.385 57.189 75.613 31.947 151c-6.69 19.978-9.017 33.64-9.655 56.67-.791 28.532 1.488 44.8 9.779 69.83C69.612 390.833 200.091 445.356 307.5 392.593c41.233-20.255 72.226-51.547 91.981-92.868C449.963 194.135 398.885 68.362 289 27.68c-18.219-6.745-35.315-10.311-56-11.679-7.975-.528-14.95-.904-15.5-.836s-6.191.477-12.536.908M203 19.046C148.133 24.287 97.653 52.131 64.79 95.28 24.171 148.612 13.486 219.62 36.692 282c39.142 105.212 157.994 156.158 261.096 111.919 27.537-11.816 53.304-30.915 72.066-53.419 44.206-53.018 57.672-123.248 36.144-188.5-3.808-11.541-14.15-33.285-20.553-43.213-30.659-47.532-80.536-79.951-135.749-88.234-12.889-1.933-34.823-2.641-46.696-1.507m24.904 10.05c-1.59 1.59-2.006 3.037-1.723 6 .256 2.694-.024 3.904-.905 3.904-.702 0-1.276.9-1.276 2 0 1.153.667 2 1.575 2 1.365 0 1.491 1.232.946 9.25-.346 5.087-.832 10.236-1.079 11.44-.304 1.479.282 2.706 1.804 3.777 2.254 1.586 2.254 1.586 2.887-4.69.348-3.452.686-9.089.75-12.527.117-6.232.125-6.25 3.076-6.25 1.628 0 6.378.509 10.557 1.13 5.95.885 7.477 1.445 7.041 2.582-.306.798-.557 2.109-.557 2.911 0 1.211-1.281 1.344-7.5.781-8.287-.751-8.45-.613-6.051 5.128 1.604 3.839 4.071 4.556 5.051 1.468.445-1.401 1.513-2 3.567-2 3.305 0 3.501.825 1.874 7.883-.846 3.668-.734 4.688.685 6.256.932 1.03 1.828 1.74 1.991 1.577s1.499-5.73 2.969-12.371l2.673-12.074 4.034.906c5.528 1.242 5.73 1.458 4.549 4.845-.661 1.896-1.729 2.978-2.94 2.978-1.046 0-1.902.493-1.902 1.096C260 59 263.378 64 264.665 64c.678 0 2.015-2.587 2.97-5.75s2.02-6.093 2.365-6.513c.908-1.107 7 1.233 7 2.689 0 .676-1.575 5.242-3.5 10.145-3.822 9.736-4.144 11.65-2.227 13.24.987.82 2.277-1.508 5.75-10.376 2.462-6.288 5.018-11.433 5.68-11.434C284.522 56 289 58.213 289 59.113c0 2.274-2.554 5.887-4.161 5.887-2.319 0-2.531 4.722-.339 7.559 1.378 1.783 1.604 1.807 2.782.299 1.144-1.467 1.579-1.487 4.058-.188l2.777 1.455-2.585 4.41c-1.841 3.141-2.396 5.158-1.931 7.011.832 3.314 1.143 2.959 7.927-9.046 3.109-5.5 5.825-10.177 6.038-10.393.212-.215 1.106.206 1.986.936 1.337 1.11 1.749 1.092 2.506-.107 1.261-2.001-.388-3.113-15.558-10.496-12.801-6.23-22.462-9.749-35.75-13.021-3.713-.914-6.75-2.077-6.75-2.583s-2.137-3.217-4.75-6.022c-7.128-7.654-13.357-9.707-17.346-5.718M230.2 33.2c-1.559 1.559-1.534 4.289.05 5.549.688.547 4.54 1.307 8.56 1.689l7.31.695-1.509-2.918c-.83-1.605-2.641-3.66-4.025-4.567-2.939-1.926-8.661-2.173-10.386-.448m-37.686 7.673c-9.219 1.365-11.045 1.929-11.348 3.504-.336 1.742.124 1.825 6.41 1.152 3.725-.399 7.369-.954 8.098-1.234.762-.293 1.326.174 1.326 1.098 0 .884.074 1.944.164 2.357s-1.978 1.056-4.595 1.431c-5.425.776-8.569 3.111-8.569 6.364C184 58.342 192.466 70 194.498 70c2.206 0 1.884-.835-1.973-5.104-3.794-4.199-5.37-8.451-3.739-10.082.572-.572 3.046-1.266 5.498-1.543l4.458-.502.709 6.614c.545 5.093 1.193 6.955 2.818 8.093 1.161.813 2.285 1.303 2.498 1.09s-.322-5.167-1.189-11.007C201.511 43.647 201.534 43 204.107 43c1.51 0 1.935-.448 1.5-1.582-.334-.87-.607-1.77-.607-2s-.338-.363-.75-.295-5.694.856-11.736 1.75M164 48.064a2646 2646 0 0 1-14.75 5.162c-3.361 1.147-4.674 4.774-1.729 4.774.837 0 2.009 1.068 2.603 2.374 1.258 2.76-.034 5.972-3.051 7.587-1.598.855-2.162.436-3.759-2.79-1.846-3.733-1.845-3.822.073-5.306 1.073-.829 1.632-2.025 1.241-2.657-1.053-1.704-13.796 4.76-13.348 6.771.186.837.987 1.354 1.779 1.149.793-.204 2.19-.584 3.105-.844 2.57-.729 4.372 3.347 2.787 6.307-1.008 1.884-1.002 2.643.031 3.887 1.613 1.944 13.19 7.522 15.611 7.522 2.469 0 .829-1.249-4.593-3.5-2.475-1.027-4.882-2.19-5.349-2.583-1.641-1.382.405-4.678 3.258-5.249 1.567-.313 3.495-1.215 4.284-2.004 1.216-1.216 1.805-1.228 3.871-.084 3.01 1.667 7.576 1.812 8.528.27.442-.714 1.395.184 2.518 2.373 1.546 3.012 5.874 5.899 5.898 3.933.004-.361-1.877-5.754-4.182-11.985-4.46-12.061-4.388-13.119.885-13.156 2.354-.016 2.286-.182 5.868 14.27 1.125 4.538 2.329 7.131 3.637 7.831 1.075.575 2.216.786 2.534.467.46-.46-2.546-13.275-5.327-22.709-.306-1.037.255-1.818 1.549-2.156 2.811-.735 2.632-3.72-.222-3.712-1.238.004-7.425 1.83-13.75 4.058m-7.696 6.498-3.196 1.4 1.519 4.457c2.071 6.076 3.663 7.276 6.868 5.176 1.378-.903 2.505-2.043 2.505-2.535 0-1.077-3.808-10.094-4.214-9.978-.158.044-1.724.711-3.482 1.48m135.174 9.48c-.894 1.729-1.48 3.266-1.302 3.415.948.796 4.821 2.543 5.637 2.543 1.414 0 3.632-5.966 2.581-6.943-.492-.458-1.883-1.131-3.092-1.495-1.774-.536-2.511-.058-3.824 2.48M121.489 68.63c-8.911 5.904-9.137 6.122-7.779 7.48.813.813 2.32.277 5.638-2.005 5.465-3.76 7.761-2.285 2.796 1.796-5.019 4.126-3.928 8.392 2.474 9.673 2.193.438 3.401.063 4.81-1.494 2.214-2.447 5.388-2.723 6.225-.543.795 2.074-2.431 5.463-5.201 5.463-2.817 0-4.016 2.865-2.03 4.851 1.28 1.279 2.069 1.307 5.446.193 2.909-.96 4.74-1.028 6.955-.255 2.868.999 4.177.735 4.177-.844 0-.397-1.531-1.01-3.401-1.36-3.283-.616-3.384-.771-2.89-4.452.443-3.301.133-4.112-2.305-6.03-3.155-2.482-6.525-2.194-9.904.844-1.1.989-2.562 1.593-3.25 1.342-2.362-.862-1.244-3.265 2.75-5.908 4.503-2.98 4.565-3.129 2.532-6.032-1.321-1.886-1.273-2.273.476-3.856 1.782-1.613 1.875-3.493.172-3.493-.386 0-3.847 2.084-7.691 4.63m207.834 2.62c-1.114 1.237-2.314 3.066-2.667 4.063-.353.998-1.095 1.534-1.649 1.191-1.742-1.076-3.241.51-1.95 2.064.918 1.107-.298 3.211-5.958 10.308-5.69 7.135-6.957 9.333-6.341 11 .681 1.841 1.584 1.08 7.756-6.541 3.843-4.742 7.31-9.121 7.705-9.729.519-.798 1.273-.763 2.704.124 2.966 1.838 3.732-.404 1.096-3.21-1.775-1.89-1.985-2.715-1.106-4.358 1.544-2.884 4.741-3.619 7.601-1.745 3.423 2.243 4.798 5.318 4.916 10.995.067 3.245.576 5.09 1.489 5.394 1.128.376 1.26-.626.706-5.342-1.586-13.493-8.64-20.504-14.302-14.214M201.5 80.043c-30.979 4.806-57.085 18.332-78.736 40.795-17.668 18.331-29.396 40.637-34.927 66.428-3.122 14.554-3.122 38.914 0 53.468 5.897 27.498 17.741 49.211 37.525 68.787 25.419 25.152 54.168 37.709 89.638 39.15 38.35 1.559 73.525-12.133 100.541-39.135C341.682 283.41 355 251.149 355 213.955c0-37.144-13.377-69.536-39.431-95.482C296.847 99.828 275.512 88.101 249 81.88c-9.806-2.301-37.585-3.375-47.5-1.837m131.083 4.822c-.294.476 2.353 3.638 5.882 7.026 3.53 3.389 6.682 6.996 7.005 8.016.451 1.419-1.293 3.442-7.441 8.63-5.977 5.044-8.029 7.397-8.029 9.205 0 2.17 1.023 1.55 9.547-5.783 8.755-7.531 9.655-8.065 10.848-6.433.716.979 1.707 1.529 2.203 1.223.496-.307.959.412 1.029 1.597.096 1.617-2.077 3.774-8.717 8.654-6.751 4.962-8.852 7.061-8.877 8.872-.038 2.722-1.15 3.303 12.004-6.273 7.932-5.774 8.145-5.86 9.93-4 3.342 3.483 3.312 5.723-.104 7.674-2.286 1.305-3.449 1.486-4.414.685-1.62-1.345-3.449 1.595-3.449 5.544 0 2.153.355 2.52 1.944 2.016 1.41-.448 2.435.131 3.729 2.106.982 1.498 1.344 2.878.806 3.067-4.118 1.446-9.025 5.186-9.299 7.086-.175 1.223-.028 2.223.327 2.223s5.117-2.475 10.581-5.5 10.303-5.5 10.754-5.5c1.482 0 8.454 15.712 7.592 17.108-1.128 1.824-3.832.78-8.05-3.108-2.387-2.2-4.739-4-5.227-4s-2.067.928-3.51 2.063c-4.897 3.852-5.176 12.616-.558 17.532 2.105 2.241 2.378 2.292 4.066.765 1.733-1.569 1.684-1.78-1.173-5.033-2.043-2.327-2.982-4.454-2.982-6.755 0-5.25 2.38-5.232 8.037.06 4.828 4.516 5.658 4.754 10.123 2.909 1.167-.482 1.86-.053 2.335 1.444.91 2.866 4.114 2.244 3.699-.718-.191-1.367 1.211-4.104 3.75-7.316 3.977-5.03 4.878-8.105 3.168-10.804-.679-1.072-1.315-1.109-3.053-.179-2.036 1.09-2.086 1.342-.682 3.484 1.398 2.134 1.324 2.565-.973 5.679-1.368 1.853-2.979 3.369-3.581 3.369s-2.267-3.037-3.701-6.75c-1.433-3.713-3.199-6.75-3.923-6.75s-1.035-.456-.69-1.014c.344-.558-.701-3.465-2.324-6.461s-2.444-5.352-1.824-5.236c1.502.282 3.099-10.024 2.252-14.538-1.594-8.495-8.176-11.436-12.935-5.78l-2.5 2.971-4.339-5.424c-2.386-2.983-4.901-5.445-5.589-5.471-.687-.026-1.25-.625-1.25-1.331C345 94.426 335.013 84 333.778 84c-.363 0-.901.389-1.195.865m-238.88 6.927c-4.387 4.493-4.645 5.661-1.053 4.76 2.17-.545 3.324-.007 6.376 2.973 3.393 3.313 3.656 3.952 2.939 7.13-.952 4.223-3.588 7.345-6.199 7.345-1.609 0-1.819-.482-1.28-2.935.486-2.214.137-3.442-1.421-5-1.136-1.136-2.74-2.065-3.565-2.065-1.946 0-1.896-.905.176-3.195 1.318-1.456 1.416-2.113.459-3.07-.847-.847-1.434-.892-1.927-.148-.389.589-2.434 3.153-4.543 5.699-4.435 5.351-4.084 8.448.463 4.092l2.908-2.787 2.162 2.162c1.848 1.849 1.995 2.528 1.012 4.686-.982 2.155-.872 2.672.754 3.542 1.048.56 3.656 1.019 5.796 1.019 4.421 0 8.24-3.159 8.24-6.814 0-2.72 1.152-2.781 3.5-.186 1.76 1.945 5.5 2.78 5.5 1.228 0-.425-3.813-4.565-8.473-9.201-7.626-7.587-8.326-8.592-6.998-10.059C99.871 89.485 99.624 88 98.036 88c-.346 0-2.296 1.706-4.333 3.792m232.121 1.911c-3.007 3.439-6.008 17.297-3.745 17.297.69 0 1.007-.247.705-.549-.972-.973 1.23-8.662 3.323-11.601 2.206-3.099 5.602-3.772 6.551-1.299.34.887-.356 2.563-1.628 3.917-1.597 1.7-1.967 2.822-1.315 3.987.813 1.453 1.097 1.41 2.751-.417 2.07-2.288 4.549-2.623 6.317-.855 1.597 1.597 2.551.444 1.742-2.105-.362-1.14-1.641-2.327-2.842-2.637-1.2-.31-2.858-1.998-3.683-3.752-1.784-3.793-5.753-4.757-8.176-1.986m33.753 14.212c-1.646 1.819-1.642 2.059.071 4.75.993 1.559 2.065 3.06 2.382 3.335.316.275 1.621 2.22 2.9 4.323 3.033 4.99 4.57 3.555 4.57-4.268 0-4.345-.489-6.385-1.905-7.95-2.373-2.622-5.745-2.702-8.018-.19m-282.195 3.354c-1.596 2.115-2.134 2.231-6.367 1.363-5.869-1.202-9.545-.279-11.644 2.925-2.39 3.646-.614 6.99 4.531 8.532l3.993 1.196-3.947 7.192c-2.17 3.955-3.647 7.491-3.281 7.857 1.562 1.562 3.005.333 5.729-4.882 4.02-7.692 6.047-7.163 6.27 1.638.092 3.61-.133 7.042-.5 7.628-.366.585-3.027 1.763-5.912 2.618l-5.247 1.554.247-3.086c.452-5.664-1.979-4.017-5.02 3.4-6.238 15.215-11.316 35.114-9.44 36.99 1.498 1.498 3.206.063 3.206-2.694 0-2.953 1.184-3.743 4.397-2.937 1.53.384 2.607 1.456 2.796 2.781.246 1.728.938 2.128 3.489 2.016 3.77-.166 17.511-6.28 17.072-7.597-.471-1.413-1.454-1.165-7.106 1.794l-5.251 2.749-2.584-2.583c-1.42-1.421-4.435-3.083-6.698-3.692s-4.112-1.428-4.109-1.82c.019-2.533 2.293-8.211 3.289-8.211.66 0 5.408 1.402 10.551 3.115 7.845 2.614 9.76 2.93 11.882 1.963 1.392-.634 2.311-1.372 2.043-1.641-.269-.268-5.614-2.216-11.88-4.328-10.49-3.536-11.369-4.027-11.112-6.203.455-3.861 1.801-4.399 6.124-2.45 7.394 3.335 15.097-.235 15.097-6.995 0-3.124.273-3.461 2.8-3.461 1.54 0 3.37-.562 4.067-1.25 1.308-1.29 1.696-.959 5.581 4.75 1.049 1.541 1.641 1.731 2.58.827.953-.918.756-1.821-.905-4.154-1.168-1.64-2.123-3.222-2.123-3.517s1.864-.449 4.142-.345c5.825.266 6.218-1.985.497-2.842-4.442-.667-4.476-.701-3.929-4.071.51-3.143.354-3.398-2.079-3.398-2.32 0-2.631.398-2.631 3.365 0 4.284-3.448 8.855-6.365 8.439-1.982-.282-2.117-.82-1.883-7.527.249-7.117.209-7.246-2.75-8.776-3.285-1.699-3.616-2.487-1.802-4.301.92-.92.925-1.475.024-2.376-.902-.902-1.609-.786-3.029.5-2.4 2.171-4.481 2.123-6.54-.153-2.217-2.45-2.085-3.756.568-5.614 2.464-1.727 6.507-2.013 8.713-.618 1.185.75 1.209 1.182.137 2.473-1.085 1.308-1.017 1.672.415 2.222.985.378 2.063.092 2.536-.672.873-1.413 2.007-.786 13.976 7.739 4.955 3.529 9 4.565 9 2.304 0-.467-4.267-3.873-9.483-7.571-8.138-5.769-9.403-7.04-8.919-8.969.803-3.198-1.156-3.927-3.216-1.196M134 129v10h37c35.667 0 37.072.072 39 2 1.962 1.962 2 3.333 2 73s-.038 71.038-2 73c-1.928 1.928-3.333 2-39 2h-37v20h173v-20h-36.889c-34.831 0-37.021-.107-39.25-1.912l-2.361-1.911v-71.053c0-66.862.105-71.158 1.785-72.838 1.639-1.64 4.84-1.809 39.25-2.071L307 138.93V119H134zm225.278-2.344c-2.088 1.457-2.132 1.726-.724 4.447 1.745 3.375 1.661 3.355 5.496 1.371 3.394-1.755 3.517-2.219 1.393-5.251-1.811-2.587-3.101-2.705-6.165-.567M67 149.168c-5.408 1.527-5.484 2.376-.388 4.322 4.545 1.735 4.751 1.734 6.047-.038 1.913-2.617 1.696-5.47-.409-5.362-.963.05-3.325.535-5.25 1.078m315 14.938c0 .608.703 3.819 1.563 7.137 1.072 4.138 1.24 6.354.533 7.061-1.139 1.139-1.349.73-3.057-5.951-1.487-5.816-3.746-6.34-7.88-1.829-2.541 2.773-3.176 4.171-2.639 5.814.389 1.189.928 3.85 1.199 5.912.558 4.262-.642 4.827-3.719 1.75-2.47-2.47-2.671-8.802-.417-13.161 1.219-2.356 1.276-2.966.25-2.65-1.966.606-5.833 8.761-5.833 12.3 0 4.832 2.462 7.511 6.902 7.511 2.4 0 4.395-.67 5.443-1.829 1.932-2.135 2.152-6.986.482-10.651-.869-1.907-.881-2.866-.048-3.699 1.28-1.28 2.457.92 4.205 7.854 1.017 4.033 1.154 4.146 4.033 3.32 2.652-.76 3.047-.587 3.59 1.575.391 1.559 1.326 2.43 2.608 2.43 1.164 0 1.818-.522 1.565-1.25-.238-.687-1.524-6.087-2.857-11.999-1.949-8.648-2.765-10.75-4.173-10.75-.962-.001-1.75.497-1.75 1.105m-5.675 62.313c-4.293 1.922-6.346 5.38-7.009 11.811l-.556 5.385 13.244 1.735c7.285.954 13.485 1.495 13.777 1.202.293-.293.575-3.423.626-6.957.08-5.543-.25-6.791-2.407-9.101-3.289-3.523-4.634-4.181-10-4.896-2.929-.391-5.608-.104-7.675.821M50.5 229.545c-4.4.717-8.562 1.339-9.25 1.38-.687.041-1.25 1.232-1.25 2.647 0 2.54.07 2.563 5.598 1.873 5.127-.641 5.568-.542 5.25 1.178-.191 1.032-2.225 2.779-4.519 3.882-5.319 2.555-5.647 2.919-4.863 5.389.629 1.98.78 1.993 4.842.42 2.305-.893 4.905-2.232 5.777-2.975 1.336-1.138 2.065-1.111 4.639.173 3.382 1.687 6.823.944 9.267-2.001 1.521-1.832 1.805-6.358.676-10.761-.619-2.414-1.161-2.735-4.436-2.63-2.052.065-7.331.707-11.731 1.425m325.616 3.339c-1.164 1.164-2.116 2.96-2.116 3.991 0 2.054 1.483 2.519 11.75 3.678 6.199.7 6.25.685 6.25-1.813 0-4.331-3.033-6.941-8.697-7.485-4.227-.406-5.423-.135-7.187 1.629m-318.866.812c-4.283.844-2.079 5.641 2.359 5.134 2.324-.265 2.891-.817 2.891-2.816 0-2.579-1.211-3.114-5.25-2.318m309.844 16.054c-2.541 9.692-2.644 9.028 1.564 10.13 14.504 3.798 20.762 5.173 21.78 4.782 1.078-.414 3.562-8.946 3.562-12.238 0-.838-.992-1.424-2.412-1.424-2.035 0-2.518.626-3.088 4-.473 2.801-1.174 3.995-2.338 3.985-3.192-.03-4.295-1.578-3.974-5.583.269-3.371.013-3.944-1.881-4.214-1.81-.258-2.31.31-2.861 3.25-.673 3.585-2.427 4.495-5.235 2.714-.971-.617-1.033-1.491-.25-3.55 1.626-4.276 1.289-5.602-1.422-5.602-2.003 0-2.645.699-3.445 3.75m-318.906.989c-4.809.335-5.283.578-5 2.565.242 1.702 1.097 2.27 3.803 2.527 5.682.54 6.967 5.105 2.14 7.601-2.296 1.188-2.773 1.992-2.384 4.026.267 1.398.825 2.542 1.239 2.542s5.983-2.975 12.374-6.611c10.993-6.254 11.588-6.755 10.993-9.25-.346-1.452-.819-2.977-1.05-3.389-.413-.736-11.613-.741-22.115-.011M56 257c0 2.472 1.484 2.472 6 0l3.5-1.916-4.75-.042c-4.097-.036-4.75.233-4.75 1.958m305.614 11.027c-1.575 4.431-2.695 8.207-2.489 8.391s1.335.628 2.509.988c1.709.525 2.26.151 2.769-1.875.349-1.392 1.072-2.531 1.607-2.531s5.102 1.554 10.15 3.454 9.498 3.257 9.889 3.016c.39-.241.943-1.33 1.228-2.42.369-1.412-.099-2.173-1.63-2.653-1.181-.37-5.674-2.015-9.986-3.656l-7.838-2.984.634-3.378c.364-1.939.223-3.379-.33-3.379-.53 0-1.568-.232-2.307-.516-.936-.359-2.212 1.93-4.206 7.543M66.5 267.155c-3.148 1.722-4.5 3.964-4.5 7.465 0 1.78-.762 3.999-1.693 4.93-1.59 1.59-1.802 1.557-3.5-.54-.994-1.227-1.807-3.244-1.807-4.482 0-1.861-.432-2.168-2.5-1.773-2.915.557-3.196 2.644-1.048 7.783 2.236 5.353 7.998 6.78 12.898 3.195 1.02-.745 2.401-3.797 3.076-6.793 1.419-6.301 3.323-7.056 5.574-2.212 1.465 3.153 4.252 4.292 5.512 2.252 1.015-1.642-1.478-7.843-3.811-9.477-2.511-1.758-5.399-1.881-8.201-.348m289.989 12.879c-.369 1.164-.488 2.3-.264 2.525.224.224 5.553 2.853 11.841 5.842 10.25 4.872 11.563 5.268 12.684 3.826.688-.885 1.25-1.908 1.25-2.273 0-.681-19.028-10.193-22.759-11.378-1.569-.497-2.245-.14-2.752 1.458m-288.263 5.892c-5.651 3.184-10.525 6.04-10.831 6.346-.307.306-.043 1.518.586 2.693l1.144 2.136 4.547-2.541c5.055-2.826 5.683-2.707 7.849 1.48l1.506 2.913-5.034 2.551c-4.452 2.256-4.912 2.779-3.978 4.523.58 1.085 1.524 1.973 2.097 1.973C67.703 308 89 295.936 89 295.035c0-.435-.695-1.367-1.544-2.072-1.28-1.062-2.234-.894-5.566.979-2.212 1.243-4.16 2.102-4.329 1.909s-1.05-1.813-1.959-3.6l-1.653-3.25 3.276-1.996c1.801-1.099 3.672-2.131 4.158-2.295 1.277-.432-.295-4.723-1.7-4.641-.651.037-5.806 2.673-11.457 5.857m284.287 2.694-1.717 2.621 6.352 6.519c3.494 3.586 5.677 6.298 4.852 6.026-.825-.271-4.617-1.522-8.427-2.78l-6.927-2.287-1.856 2.292c-1.021 1.26-1.728 2.655-1.573 3.098s5.008 4.162 10.783 8.263c9.292 6.597 10.644 7.27 11.75 5.85.688-.882 1.25-1.858 1.25-2.168 0-.309-3.488-2.98-7.75-5.934s-6.85-5.043-5.75-4.641c14.47 5.29 15.955 5.62 17.26 3.834 1.108-1.515.418-2.591-5.469-8.524-3.706-3.734-6.425-6.789-6.043-6.789s4.137 2.036 8.346 4.524c7.153 4.229 7.739 4.408 8.997 2.75.74-.976 1.347-1.999 1.349-2.274.004-.514-22.275-13-23.196-13-.283 0-1.287 1.179-2.231 2.62m-265.529 9.899c-1.032 1.244-.926 1.887.588 3.561 1.15 1.271 1.466 2.302.835 2.731C78.62 311.464 72 316.609 72 317.561c0 .657.608 1.699 1.352 2.316 1.049.87 3.009-.065 8.75-4.175 10.517-7.529 9.938-7.301 11.902-4.696 1.575 2.088 1.918 2.162 3.822.829 2.069-1.45 2.041-1.535-2.618-8.129-4.909-6.948-6.126-7.715-8.224-5.187m251.49 10.509c-.987 1.092-1.61 2.129-1.385 2.307l10.32 8.138c7.604 5.999 10.264 7.592 11.44 6.85 2.8-1.766 2.265-2.996-3.064-7.05a617 617 0 0 1-10.4-8.124c-5.062-4.062-5.134-4.084-6.911-2.121M90.41 320.117c-4.901 4.465-9.029 8.42-9.173 8.791-.145.37.345 1.506 1.09 2.524 1.282 1.754 1.566 1.659 5.388-1.794 3.507-3.168 4.199-3.447 5.288-2.134 1.031 1.242.787 2.215-1.375 5.482-3.043 4.599-3.161 5.327-1.134 7.009 1.228 1.019 1.849.818 3.48-1.127 1.092-1.303 2.534-3.83 3.206-5.618.952-2.531 1.802-3.25 3.847-3.25 4.146 0 7.433-4.272 7.091-9.215-.146-2.127-5.878-8.785-7.562-8.785-.68 0-5.246 3.653-10.146 8.117m7.559.416c-2.224 2.368-2.26 2.604-.644 4.221 1.32 1.319 2.11 1.463 3.444.627 2.221-1.392 2.727-4.724.942-6.206-1.086-.901-1.896-.607-3.742 1.358m229.86 1.066c-1.466 1.466-.933 2.236 6.377 9.22 11.807 11.281 11.298 11.049 15.46 7.046 5.121-4.926 5.995-6.909 3.763-8.541-1.598-1.168-2.209-.961-4.931 1.678l-3.108 3.012-7.604-7.007c-4.183-3.854-7.774-7.007-7.981-7.007s-1.096.72-1.976 1.599M104.114 334.76c-8.609 9.278-8.93 9.786-7.309 11.586 1.633 1.814 2.031 1.524 10.925-7.982 5.076-5.425 9.239-10.093 9.25-10.373.011-.281-.854-1.055-1.921-1.722-1.743-1.089-2.861-.221-10.945 8.491m13.561-5.043c-.313.506-1.328 4.257-2.255 8.336-1.167 5.13-2.726 8.777-5.055 11.828-2.601 3.407-3.112 4.719-2.244 5.765 1.861 2.242 3.462 1.563 6.44-2.734 2.099-3.028 4.908-5.131 10.84-8.114 7.393-3.717 7.862-4.132 6.112-5.412-2.606-1.905-3.482-1.771-7.859 1.203-2.095 1.424-3.998 2.4-4.229 2.169s.311-2.563 1.205-5.184c1.56-4.58 1.545-4.843-.382-6.771-1.103-1.102-2.261-1.591-2.573-1.086m198.443 2.335-2.381 1.982 3.131 7.46c1.723 4.103 3.132 7.724 3.132 8.046s-2.946-1.914-6.547-4.969c-6.429-5.454-6.593-5.525-9.046-3.918-1.374.9-2.365 2.148-2.202 2.773.66 2.542 13.377 21.555 14.423 21.564.62.006 1.624-.589 2.232-1.321.847-1.021-.101-3.044-4.072-8.679-5.635-7.999-5.17-8.108 3.317-.781 3.75 3.237 6.15 4.63 7.25 4.208 2.387-.916 2.579-.114-3.803-15.917-1.748-4.328-1.832-4.404 5.855 5.318 4.658 5.891 5.002 6.122 6.747 4.543 1.083-.98 1.501-2.116 1.018-2.763-3.189-4.266-15.551-19.139-16.052-19.313-.341-.118-1.692.678-3.002 1.767m-190.65 20.335-9.968 9.388 2.867 1.326c2.609 1.207 3.03 1.127 4.661-.887 2.121-2.62 2.824-2.706 5.692-.698 1.908 1.337 2.035 1.888 1.071 4.653-.932 2.673-.821 3.336.749 4.484 1.013.741 2.123 1.347 2.466 1.347.659 0 7.994-23.001 7.994-25.069 0-1.34-2.917-3.849-4.532-3.899-.568-.018-5.518 4.192-11 9.355m165.233-3.754c-1.87.99-2.632 2.044-2.297 3.175.276.93 1.665 6.417 3.086 12.192 3.472 14.113 3.09 13.295 5.59 11.957 1.739-.93 1.999-1.722 1.479-4.496-.544-2.898-.26-3.611 2.034-5.114 2.624-1.719 2.705-1.701 5.103 1.086 2.206 2.564 2.666 2.711 4.839 1.548l2.402-1.285-6.874-7.598c-11.644-12.87-12.086-13.2-15.362-11.465m-159.256 4.425c-2.43 2.536-2.666 3.191-1.427 3.974.815.516 1.785.944 2.154.953.807.018 3.209-6.937 2.605-7.542-.233-.232-1.732.944-3.332 2.615m18.656 12.086c-5.242 12.118-5.423 13.786-1.504 13.841.603.008 3.435-5.264 6.293-11.716 4.813-10.864 5.069-11.826 3.463-13-.955-.698-2.019-1.269-2.367-1.269s-2.995 5.465-5.885 12.144m124.399-9.19c-9.77 4.041-9.372 20.134.631 25.49 3.175 1.7 4.135 1.793 7.653.739 2.212-.663 5-1.997 6.195-2.965l2.173-1.759-1.918-4.98c-1.055-2.738-2.189-5.74-2.522-6.67-.556-1.558-.912-1.57-4.537-.146-3.051 1.199-3.822 1.971-3.437 3.441.272 1.043 1.327 1.896 2.343 1.896 2.251 0 4.54 3.779 3.139 5.18-.531.531-2.441.82-4.244.643-4.145-.408-7.129-4.231-7.273-9.316-.121-4.285 2.844-7.507 6.908-7.507 1.882 0 2.389-.531 2.389-2.5 0-2.076-.466-2.489-2.75-2.437-1.512.035-3.65.436-4.75.891m19.819.546c1.858 7.118 1.965 7.244 4.681 5.514 1.251-.796.943-1.501-1.851-4.235-2.63-2.572-3.239-2.848-2.83-1.279m-131.864 3.955c-3.406 3.405-3.213 7.612.545 11.892 5.045 5.746 3.215 9.367-3.087 6.108-3.111-1.609-3.334-1.6-4.636.178-1.198 1.634-1.104 2.082.749 3.585 5.279 4.284 12.868 2.82 15.044-2.902 1.255-3.302.393-5.976-3.289-10.196-2.717-3.115-2.822-3.508-1.331-4.999 1.49-1.489 1.842-1.49 4.429-.005 2.632 1.51 2.883 1.495 3.965-.238 1.584-2.536 1.547-2.624-1.794-4.352-4.244-2.195-7.783-1.884-10.595.929m95.626 1.474c-1.194.756-.894 2.895 1.896 13.485 1.824 6.922 3.813 12.579 4.42 12.571s1.721-.407 2.476-.885c1.131-.717.786-3.09-1.961-13.485-1.834-6.938-3.802-12.608-4.373-12.6s-1.678.42-2.458.914m-79.503 1.196c-.25.756-1.584 6.538-2.964 12.848-1.897 8.677-2.217 11.66-1.311 12.235 2.494 1.586 3.704.651 4.801-3.708 1.124-4.462 1.17-4.5 5.442-4.5 3.488 0 4.713-.513 6.429-2.696 2.948-3.748 2.464-9.92-.975-12.426-3.387-2.469-10.808-3.608-11.422-1.753m71.601.744c-1.064.674-1.102 2.08-.198 7.234.618 3.518 1.363 7.297 1.657 8.397s-1.991-1.718-5.078-6.263c-5.203-7.661-5.81-8.215-8.336-7.609-1.498.359-2.825.729-2.949.821-.683.509 4.389 25.944 5.225 26.206.55.172 1.594-.064 2.321-.524 1.275-.807.845-5.423-1.503-16.131-.318-1.452 1.916 1.063 5.331 6 5.045 7.295 6.23 8.451 8.365 8.152 1.367-.191 2.587-.442 2.711-.559.666-.622-4.383-25.984-5.225-26.248-.55-.172-1.594.064-2.321.524m-55.192 13.881a3577 3577 0 0 0-4.759 13c-.282.797.521 1.25 2.217 1.25 2.055 0 2.896-.681 3.705-3 .885-2.541 1.567-3 4.448-3 3.059 0 3.402.282 3.402 2.8 0 3.216 1.603 5.2 4.2 5.2 2.171 0 2.159.588.271-12.72-2.268-15.981-2-15.28-5.838-15.28h-3.329zm-12.916-7.044c-.766 2.772-.715 3.902.203 4.484 1.761 1.119 2.389 1.004 4.155-.761 2.145-2.146 1.975-5.143-.363-6.394-2.771-1.483-2.866-1.419-3.995 2.671M210 369.5c0 2.111.467 2.5 3 2.5h3v22h5v-21.873l3.25-.314c2.491-.24 3.325-.838 3.57-2.563.311-2.191.083-2.25-8.75-2.25-9.008 0-9.07.017-9.07 2.5m-9.389 5.914c-.331 1.32-.878 3.117-1.214 3.993-.44 1.147-.021 1.593 1.496 1.593 1.734 0 2.107-.608 2.107-3.441 0-4.126-1.544-5.512-2.389-2.145M24 434.264v10.264l10.346 18.486L44.692 481.5l23.927.267 23.928.268 11.226-18.961L115 444.113v-20.171l-13.161.279-13.162.279-9.327 16.496c-5.13 9.073-9.725 16.629-10.211 16.791s-5.103-7.369-10.261-16.736l-9.378-17.03-12.75-.01L24 424zm97.667-9.597c-.367.366-.667 13.416-.667 29V482h31v-58h-14.833c-8.159 0-15.134.3-15.5.667M159 433.968v9.969l11.494.281 11.494.282-10.494 18.372C165.722 472.976 161 481.414 161 481.622s15.975.378 35.5.378H232v-19.938l-12.031-.281-12.031-.281 9.131-15.5c5.022-8.525 10.023-16.962 11.113-18.75l1.981-3.25H159zm90.684 9.314L239 462.599V482h25.569l9.392-17.142c11.031-20.135 8.62-20.367 21.114 2.038L303.497 482H330v-19.876l-11.31-18.812-11.311-18.812-23.505-.268-23.505-.267zM357.64 426.25c-.773 1.238-5.733 10.004-11.023 19.48L337 462.96V482h83.055l-.278-14.25-.277-14.25-13.75-.278-13.75-.278V463h-20.04l3.059-5.25a942 942 0 0 0 6.27-10.97l3.211-5.721 17.5-.279 17.5-.28.29-8.25.291-8.25h-61.035zM56.25 494.764l-32.25.264V513h50v5H24v6h72.081l-.291-8.25-.29-8.25-25.25-.267-25.25-.267v-4.932l25.25-.267 25.25-.267.313-3.25c.207-2.148-.132-3.278-1-3.331-.722-.045-2.438-.157-3.813-.25s-17.013-.05-34.75.095M105 498v3h25v23h21v-23h26v-6h-72zm81 12v15.025l35.75-.262 35.75-.263.313-3.25.314-3.25H207v-4.959l20.75-.271 20.75-.27v-6l-21.317-.27-21.317-.27.317-2.23.317-2.23 25.815-.267 25.815-.267-.315-2.733-.315-2.733-35.75-.263-35.75-.262zm81-.5V524h72.133l-.317-2.75-.316-2.75-25.25-.267-25.25-.267V512h41v-6h-20.5c-19.774 0-20.5-.07-20.5-1.983 0-1.918.829-1.991 25.25-2.25l25.25-.267.313-3.25.314-3.25H267zm81 0V524h72.133l-.317-2.75-.316-2.75-25.25-.267-25.25-.267V495h-21zm-226.25 27.25c54.587.143 143.912.143 198.5 0s9.925-.26-99.25-.26-153.838.117-99.25.26m-89.099 8c-.257.413 3.429.629 8.191.482 15.979-.495 17.752-.87 4.967-1.052-6.98-.099-12.901.157-13.158.57m67.711.75c-1.077 2.806.446 4.5 4.048 4.5 1.909 0 3.686-.346 3.947-.768s-1.287-.601-3.441-.395c-3.486.332-3.916.13-3.916-1.837s.43-2.169 3.916-1.837c2.154.206 3.702.028 3.441-.395-.885-1.431-7.394-.836-7.995.732m38.888-.809 3.75.43v26.139l-4.696-.529c-3.298-.372-4.184-.243-2.978.432.944.528 3.17.82 4.946.649l3.228-.312v-27l-4-.119-4-.119zm138.534.047c2.905.203 7.405.201 10-.004s.216-.371-5.284-.369-7.622.171-4.716.373m123.978-.031c1.244.239 3.044.23 4-.02s-.062-.446-2.262-.435-2.982.216-1.738.455m-95.458 5.239c-.28 1.071-1.251 2.17-2.157 2.443-1.232.371-1.172.448.24.304 1.629-.167 4.511-4.693 2.987-4.693-.309 0-.79.876-1.07 1.946m-264.91.47c-.299.778-.352 2.691-.118 4.25.361 2.414.447 2.286.574-.868l.15-3.703 6.25-.355 6.25-.355-6.281-.192c-4.63-.142-6.425.179-6.825 1.223M278 549.614c5.969.751 12.775.826 12.347.136-.256-.413-3.701-.683-7.656-.6-3.955.082-6.066.291-4.691.464M68.232 554c0 1.925.206 2.712.457 1.75.252-.962.252-2.538 0-3.5-.251-.962-.457-.175-.457 1.75m6.518-1.294c1.237.238 3.263.238 4.5 0 1.237-.239.225-.434-2.25-.434s-3.487.195-2.25.434m25.675.628c-.281.733-.379 5.121-.218 9.75l.293 8.416 3.759.105 3.758.105-3.508-.416-3.509-.415v-17.758l3.75-.393 3.75-.392-3.781-.168c-2.359-.105-3.974.334-4.294 1.166m218.343-.609c1.797.222 4.497.218 6-.01 1.503-.229.032-.411-3.268-.405s-4.529.192-2.732.415m31.501-.032c.973.254 2.323.237 3-.037s-.119-.481-1.769-.461-2.204.244-1.231.498m-125.773 3.314c-.785 1.269 1.803 2.313 4.196 1.694 1.158-.301.799-.511-1.001-.585-1.596-.066-2.542-.548-2.191-1.116.34-.55.393-1 .118-1s-.78.453-1.122 1.007M81.872 557.75c-1.242 1.584-1.207 1.621.369.385.957-.751 3.071-1.169 4.697-.931 1.626.239 2.729.066 2.45-.385-.922-1.492-6.12-.849-7.516.931m44.89-1.043c1.244.239 3.044.23 4-.02s-.062-.446-2.262-.435-2.982.216-1.738.455m33.238-.144c3.508.774 9.794.912 9.357.205-.261-.422-2.811-.716-5.666-.652s-4.516.265-3.691.447m144.2.058c1.242.37 1.806 1.903 2.095 5.693l.396 5.186-.096-5.491c-.082-4.72-.376-5.519-2.095-5.692-1.463-.148-1.543-.066-.3.304m13.568.104c1.797.222 4.497.218 6-.01 1.503-.229.032-.411-3.268-.405s-4.529.192-2.732.415m21.875.043c-.261.423 1.4.624 3.691.448 6.729-.52 7.548-.975 1.975-1.1-2.855-.064-5.405.23-5.666.652m35.357-.205c3.508.774 9.794.912 9.357.205-.261-.422-2.811-.716-5.666-.652s-4.516.265-3.691.447m-252.606 1.853c-.299.778-.381 2.691-.184 4.25.294 2.313.45 2.052.851-1.416.506-4.373.284-5.314-.667-2.834m113.235-.625c-.269.435 1.167.634 3.191.442 6.184-.586 6.913-.995 1.989-1.117-2.58-.064-4.911.24-5.18.675m-77.729 1.513c.445.443 3.462.662 6.704.488l5.896-.317-6.704-.488c-3.688-.268-6.341-.125-5.896.317m47.024 1.446-2.424 2.75 2.75-2.424c1.512-1.334 2.75-2.571 2.75-2.75 0-.785-.81-.146-3.076 2.424M330.272 562c0 2.475.195 3.487.434 2.25.238-1.237.238-3.263 0-4.5-.239-1.237-.434-.225-.434 2.25M345 559l-6.5.655 6.191.172c3.405.095 6.469-.277 6.809-.827s.479-.922.309-.827-3.234.467-6.809.827m27.9.304c.445.443 3.462.662 6.704.488l5.896-.317-6.704-.488c-3.688-.268-6.341-.125-5.896.317m20.295 1.196c.02 1.65.244 2.204.498 1.231s.237-2.323-.037-3-.481.119-.461 1.769M94 560l-3.5.737 3.191.131c1.755.073 3.469-.318 3.809-.868s.479-.941.309-.868-1.884.463-3.809.868m186.768.725c1.797.222 4.497.218 6-.01 1.503-.229.032-.411-3.268-.405s-4.529.192-2.732.415m-239.101 2.942c-.367.366-.667 2.212-.667 4.1v3.434l-4.454-.354c-2.449-.195-4.083.016-3.631.468s2.568.678 4.703.503c3.688-.302 3.897-.503 4.19-4.022l.307-3.704 6.193-.353 6.192-.354-6.083-.192c-3.346-.106-6.384.107-6.75.474m115.333.774c0 .793.445 1.716.989 2.052.561.347.737-.043.407-.904-.49-1.277.964-1.566 9.261-1.842l9.843-.328-10.25-.21c-8.355-.17-10.25.057-10.25 1.232m164.612-.622c-.279.451.82.624 2.441.387 1.621-.238 2.947-.607 2.947-.819 0-.762-4.893-.37-5.388.432m22.172-.081c2.905.203 7.405.201 10-.004s.216-.371-5.284-.369-7.622.171-4.716.373m28.662.349c-.369.598-.144 1.611.5 2.25.894.887 1.018.756.521-.55-.584-1.532.384-1.747 9.19-2.04l9.843-.328-9.691-.21c-6.119-.132-9.939.192-10.363.878m-202.996 1.85c-.522.515-2.975 1.112-5.45 1.325l-4.5.389 4.628.174c3.068.116 5.047-.33 5.872-1.325 1.366-1.646.965-2.057-.55-.563m105.368.281c.533.533 1.805.793 2.826.576 1.375-.291 1.123-.543-.97-.969-1.825-.373-2.482-.233-1.856.393m109.632-.281c-.522.515-2.975 1.112-5.45 1.325l-4.5.389 4.628.174c3.068.116 5.047-.33 5.872-1.325 1.366-1.646.965-2.057-.55-.563m-257.7 1.769c1.237.238 3.262.238 4.5 0 1.238-.239.225-.434-2.25-.434s-3.487.195-2.25.434m171.389 1.327c-1.298 1.082-1.93 1.967-1.405 1.967.526 0 1.771-.9 2.766-2 2.287-2.527 1.695-2.513-1.361.033m45.125-1.315c1.52.229 3.77.223 5-.014s-.014-.425-2.764-.418-3.756.202-2.236.432M74.75 571.706c1.237.238 3.263.238 4.5 0 1.237-.239.225-.434-2.25-.434s-3.487.195-2.25.434m47.978.016c1.775.221 4.925.224 7 .008 2.074-.217.622-.397-3.228-.402-3.85-.004-5.548.173-3.772.394m36.522.013c2.613.206 6.887.206 9.5 0s.475-.375-4.75-.375-7.363.169-4.75.375m117.539.006c3.459.196 8.859.195 12-.003s.311-.358-6.289-.356-9.17.164-5.711.359m36.939-.019c1.775.221 4.925.224 7 .008 2.074-.217.622-.397-3.228-.402-3.85-.004-5.548.173-3.772.394m27.522.013c2.613.206 6.887.206 9.5 0s.475-.375-4.75-.375-7.363.169-4.75.375m33 0c2.613.206 6.887.206 9.5 0s.475-.375-4.75-.375-7.363.169-4.75.375m26.5-.029c1.238.238 3.262.238 4.5 0 1.238-.239.225-.434-2.25-.434s-3.488.195-2.25.434m-176.826 7.044-2.424 2.75 2.75-2.424c1.512-1.334 2.75-2.571 2.75-2.75 0-.785-.81-.146-3.076 2.424" fill="#0b883f" fill-rule="evenodd"/>
</svg>